HIERARCHY
ROOT Hips
{
	OFFSET 0.000000 83.214638 0.000000
	CHANNELS 6 Xposition Yposition Zposition Xrotation Yrotation Zrotation
	JOINT Pelvis
	{
		OFFSET 0.000000 0.000000 0.000000
		CHANNELS 3 Xrotation Yrotation Zrotation
		JOINT LeftUpLeg
		{
			OFFSET 8.479700 -4.795502 -0.379100
			CHANNELS 3 Xrotation Yrotation Zrotation
			JOINT LeftLeg
			{
				OFFSET 0.024144 -32.555107 0.112900
				CHANNELS 3 Xrotation Yrotation Zrotation
				JOINT LeftFoot
				{
					OFFSET -0.024144 -32.638630 -3.012600
					CHANNELS 3 Xrotation Yrotation Zrotation
					JOINT LeftToeBase
					{
						OFFSET 0.970200 -13.225400 11.864200
						CHANNELS 3 Xrotation Yrotation Zrotation
						End Site
						{
							OFFSET 0.000000 12.319262 0.000000
						}
					}
					JOINT LFootTongue
					{
						OFFSET 1.142400 -1.059800 6.665200
						CHANNELS 3 Xrotation Yrotation Zrotation
						End Site
						{
							OFFSET 0.000000 12.319262 0.000000
						}
					}
				}
				JOINT LeftPantLeg
				{
					OFFSET 0.918482 -16.533964 -2.284700
					CHANNELS 3 Xrotation Yrotation Zrotation
					End Site
					{
						OFFSET 0.350399 24.744368 0.000000
					}
				}
			}
		}
		JOINT RightUpLeg
		{
			OFFSET -8.479700 -4.795502 -0.379100
			CHANNELS 3 Xrotation Yrotation Zrotation
			JOINT RightLeg
			{
				OFFSET -0.023144 -32.555092 0.112900
				CHANNELS 3 Xrotation Yrotation Zrotation
				JOINT RightFoot
				{
					OFFSET 0.023144 -32.638641 -3.012700
					CHANNELS 3 Xrotation Yrotation Zrotation
					JOINT RightToeBase
					{
						OFFSET -0.970200 -13.225400 11.864200
						CHANNELS 3 Xrotation Yrotation Zrotation
						End Site
						{
							OFFSET 0.000000 12.319244 0.000000
						}
					}
					JOINT RFootTongue
					{
						OFFSET -1.142200 -1.059800 6.665200
						CHANNELS 3 Xrotation Yrotation Zrotation
						End Site
						{
							OFFSET 0.000000 12.319243 0.000000
						}
					}
				}
				JOINT RightPantLeg
				{
					OFFSET -0.919482 -16.533978 -2.284800
					CHANNELS 3 Xrotation Yrotation Zrotation
					End Site
					{
						OFFSET -0.350400 24.744419 0.000000
					}
				}
			}
		}
	}
	JOINT Spine
	{
		OFFSET 0.000000 7.722000 1.166200
		CHANNELS 3 Xrotation Yrotation Zrotation
		JOINT Spine1
		{
			OFFSET 0.000000 12.024101 0.248800
			CHANNELS 3 Xrotation Yrotation Zrotation
			JOINT Spine2
			{
				OFFSET 0.000000 11.502998 -0.491200
				CHANNELS 3 Xrotation Yrotation Zrotation
				JOINT Neck
				{
					OFFSET 0.000000 18.430702 -3.123100
					CHANNELS 3 Xrotation Yrotation Zrotation
					JOINT Head
					{
						OFFSET 0.000000 9.051102 1.034000
						CHANNELS 3 Xrotation Yrotation Zrotation
						JOINT HairB
						{
							OFFSET 0.208400 24.786102 24.822300
							CHANNELS 3 Xrotation Yrotation Zrotation
							End Site
							{
								OFFSET 0.000000 32.263779 0.000000
							}
						}
						JOINT HairA
						{
							OFFSET -7.081100 24.428299 23.196600
							CHANNELS 3 Xrotation Yrotation Zrotation
							End Site
							{
								OFFSET 0.000000 32.263779 0.000000
							}
						}
						JOINT Hat
						{
							OFFSET 16.728800 15.048294 -15.439601
							CHANNELS 3 Xrotation Yrotation Zrotation
							End Site
							{
								OFFSET 0.000000 32.263779 0.000000
							}
						}
					}
				}
				JOINT LeftShoulder
				{
					OFFSET 6.197800 13.665199 -4.064700
					CHANNELS 3 Xrotation Yrotation Zrotation
					JOINT LeftArm
					{
						OFFSET 7.778100 -0.187103 -1.709300
						CHANNELS 3 Xrotation Yrotation Zrotation
						JOINT LeftForeArm
						{
							OFFSET 22.049376 0.000000 0.000000
							CHANNELS 3 Xrotation Yrotation Zrotation
							JOINT LeftHand
							{
								OFFSET 23.009392 0.000000 0.000000
								CHANNELS 3 Xrotation Yrotation Zrotation
								JOINT LeftHandThumb1
								{
									OFFSET 3.507191 -2.063065 3.133727
									CHANNELS 3 Xrotation Yrotation Zrotation
									JOINT LeftHandThumb2
									{
										OFFSET 3.101337 -1.790558 1.790558
										CHANNELS 3 Xrotation Yrotation Zrotation
										JOINT LeftHandThumb3
										{
											OFFSET 3.058640 -1.765907 1.765906
											CHANNELS 3 Xrotation Yrotation Zrotation
											End Site
											{
												OFFSET -0.415260 3.926476 -0.049563
											}
										}
									}
								}
								JOINT LeftHandIndex1
								{
									OFFSET 11.334419 -0.901459 3.706815
									CHANNELS 3 Xrotation Yrotation Zrotation
									JOINT LeftHandIndex2
									{
										OFFSET 3.283112 0.000000 0.000000
										CHANNELS 3 Xrotation Yrotation Zrotation
										JOINT LeftHandIndex3
										{
											OFFSET 3.323853 0.000000 0.000000
											CHANNELS 3 Xrotation Yrotation Zrotation
											End Site
											{
												OFFSET -1.135597 3.097809 0.402452
											}
										}
									}
								}
								JOINT LeftHandMiddle1
								{
									OFFSET 11.335861 0.000000 0.000000
									CHANNELS 3 Xrotation Yrotation Zrotation
									JOINT LeftHandMiddle2
									{
										OFFSET 3.410492 0.000000 0.000000
										CHANNELS 3 Xrotation Yrotation Zrotation
										JOINT LeftHandMiddle3
										{
											OFFSET 3.312172 0.000000 0.000000
											CHANNELS 3 Xrotation Yrotation Zrotation
											End Site
											{
												OFFSET -1.150200 3.080154 0.400270
											}
										}
									}
								}
								JOINT LeftHandRing1
								{
									OFFSET 11.514786 -0.013176 -3.003090
									CHANNELS 3 Xrotation Yrotation Zrotation
									JOINT LeftHandRing2
									{
										OFFSET 3.053307 0.000000 0.000000
										CHANNELS 3 Xrotation Yrotation Zrotation
										JOINT LeftHandRing3
										{
											OFFSET 3.295807 0.000000 0.000000
											CHANNELS 3 Xrotation Yrotation Zrotation
											End Site
											{
												OFFSET -1.281006 3.013344 0.375733
											}
										}
									}
								}
								JOINT LeftHandPinky1
								{
									OFFSET 10.518692 -0.960396 -5.730441
									CHANNELS 3 Xrotation Yrotation Zrotation
									JOINT LeftHandPinky2
									{
										OFFSET 2.861649 0.000000 0.000000
										CHANNELS 3 Xrotation Yrotation Zrotation
										JOINT LeftHandPinky3
										{
											OFFSET 2.863380 0.000000 0.000000
											CHANNELS 3 Xrotation Yrotation Zrotation
											End Site
											{
												OFFSET -0.843597 2.711159 0.369971
											}
										}
									}
								}
							}
							JOINT LSleeve
							{
								OFFSET 6.676277 -0.344902 -1.011730
								CHANNELS 3 Xrotation Yrotation Zrotation
								End Site
								{
									OFFSET 0.000000 14.885353 0.000000
								}
							}
						}
					}
				}
				JOINT RightShoulder
				{
					OFFSET -6.197800 13.665199 -4.064700
					CHANNELS 3 Xrotation Yrotation Zrotation
					JOINT RightArm
					{
						OFFSET -7.778100 -0.187103 -1.709300
						CHANNELS 3 Xrotation Yrotation Zrotation
						JOINT RightForeArm
						{
							OFFSET -22.049376 0.000000 0.000000
							CHANNELS 3 Xrotation Yrotation Zrotation
							JOINT RightHand
							{
								OFFSET -23.009392 0.000000 0.000000
								CHANNELS 3 Xrotation Yrotation Zrotation
								JOINT RightHandThumb1
								{
									OFFSET -3.507191 -2.063065 3.133727
									CHANNELS 3 Xrotation Yrotation Zrotation
									JOINT RightHandThumb2
									{
										OFFSET -3.101337 -1.790558 1.790558
										CHANNELS 3 Xrotation Yrotation Zrotation
										JOINT RightHandThumb3
										{
											OFFSET -3.058640 -1.765907 1.765906
											CHANNELS 3 Xrotation Yrotation Zrotation
											End Site
											{
												OFFSET 0.415260 3.926476 -0.049563
											}
										}
									}
								}
								JOINT RightHandIndex1
								{
									OFFSET -11.334419 -0.901459 3.706815
									CHANNELS 3 Xrotation Yrotation Zrotation
									JOINT RightHandIndex2
									{
										OFFSET -3.283112 0.000000 0.000000
										CHANNELS 3 Xrotation Yrotation Zrotation
										JOINT RightHandIndex3
										{
											OFFSET -3.323853 0.000000 0.000000
											CHANNELS 3 Xrotation Yrotation Zrotation
											End Site
											{
												OFFSET 1.135597 3.097809 0.402452
											}
										}
									}
								}
								JOINT RightHandMiddle1
								{
									OFFSET -11.335861 0.000000 0.000000
									CHANNELS 3 Xrotation Yrotation Zrotation
									JOINT RightHandMiddle2
									{
										OFFSET -3.410492 0.000000 0.000000
										CHANNELS 3 Xrotation Yrotation Zrotation
										JOINT RightHandMiddle3
										{
											OFFSET -3.312172 0.000000 0.000000
											CHANNELS 3 Xrotation Yrotation Zrotation
											End Site
											{
												OFFSET 1.150200 3.080154 0.400270
											}
										}
									}
								}
								JOINT RightHandRing1
								{
									OFFSET -11.514786 -0.013176 -3.003090
									CHANNELS 3 Xrotation Yrotation Zrotation
									JOINT RightHandRing2
									{
										OFFSET -3.053307 0.000000 0.000000
										CHANNELS 3 Xrotation Yrotation Zrotation
										JOINT RightHandRing3
										{
											OFFSET -3.295807 0.000000 0.000000
											CHANNELS 3 Xrotation Yrotation Zrotation
											End Site
											{
												OFFSET 1.281006 3.013344 0.375733
											}
										}
									}
								}
								JOINT RightHandPinky1
								{
									OFFSET -10.518692 -0.960396 -5.730441
									CHANNELS 3 Xrotation Yrotation Zrotation
									JOINT RightHandPinky2
									{
										OFFSET -2.861649 0.000000 0.000000
										CHANNELS 3 Xrotation Yrotation Zrotation
										JOINT RightHandPinky3
										{
											OFFSET -2.863380 0.000000 0.000000
											CHANNELS 3 Xrotation Yrotation Zrotation
											End Site
											{
												OFFSET 0.843597 2.711159 0.369971
											}
										}
									}
								}
							}
							JOINT RSleeve
							{
								OFFSET -6.676277 -0.344902 -1.011730
								CHANNELS 3 Xrotation Yrotation Zrotation
								End Site
								{
									OFFSET 0.000000 14.885353 0.000000
								}
							}
						}
					}
				}
				JOINT Backpack
				{
					OFFSET 0.000000 -2.471497 36.677502
					CHANNELS 3 Xrotation Yrotation Zrotation
					End Site
					{
						OFFSET 0.000000 20.427315 0.000000
					}
				}
				JOINT Hood
				{
					OFFSET 0.000000 18.754097 -10.431000
					CHANNELS 3 Xrotation Yrotation Zrotation
					JOINT Hood1
					{
						OFFSET 0.000000 -5.011002 -7.685901
						CHANNELS 3 Xrotation Yrotation Zrotation
						End Site
						{
							OFFSET 0.000000 9.175140 0.000000
						}
					}
				}
				JOINT LHoodieString
				{
					OFFSET 5.250500 16.397697 3.089900
					CHANNELS 3 Xrotation Yrotation Zrotation
					JOINT LHoodieString1
					{
						OFFSET 0.257700 -6.364304 3.694600
						CHANNELS 3 Xrotation Yrotation Zrotation
						JOINT LHoodieString2
						{
							OFFSET 0.000000 -9.643799 2.679100
							CHANNELS 3 Xrotation Yrotation Zrotation
							End Site
							{
								OFFSET 0.000000 10.009018 0.000000
							}
						}
					}
				}
				JOINT RHoodieString
				{
					OFFSET -5.250500 16.397697 3.089900
					CHANNELS 3 Xrotation Yrotation Zrotation
					JOINT RHoodieString1
					{
						OFFSET -0.257700 -6.364304 3.694600
						CHANNELS 3 Xrotation Yrotation Zrotation
						JOINT RHoodieString2
						{
							OFFSET 0.000000 -9.643799 2.679100
							CHANNELS 3 Xrotation Yrotation Zrotation
							End Site
							{
								OFFSET 0.000000 10.009018 0.000000
							}
						}
					}
				}
			}
			JOINT LBackpack_Strap
			{
				OFFSET 15.223200 -7.719803 -6.610900
				CHANNELS 3 Xrotation Yrotation Zrotation
				End Site
				{
					OFFSET 0.000000 16.040596 0.000000
				}
			}
			JOINT RBackpack_Strap
			{
				OFFSET -15.223000 -7.719803 -6.610900
				CHANNELS 3 Xrotation Yrotation Zrotation
				End Site
				{
					OFFSET 0.000000 16.040596 0.000000
				}
			}
		}
	}
	JOINT BoyFacialAnim_Joint
	{
		OFFSET 1.000000 -82.208099 -1.550900
		CHANNELS 3 Xrotation Yrotation Zrotation
		End Site
		{
			OFFSET 0.000000 30.012791 0.000000
		}
	}
}
MOTION
Frames: 4
Frame Time: 0.033333
-10.299408 78.027237 -12.491488 -27.513788 -45.628570 -12.627258 0.000001 -0.000001 -0.000001 -27.841369 36.419976 33.574297 52.031404 8.878197 -2.422494 -16.305514 8.405250 11.499379 -0.000001 -0.000001 -0.000002 -0.000001 -0.000001 -0.000002 0.000001 0.000001 -0.000000 -5.203893 4.642322 3.428953 50.324697 -5.030118 1.779913 -15.885362 -20.410567 -3.983535 0.000001 0.000002 -0.000000 0.000001 0.000002 -0.000000 -0.000000 0.000000 0.000002 12.717950 -1.485832 0.049030 21.366580 -1.333217 -1.266101 21.362438 -1.207116 -1.264242 0.307885 7.850159 1.431524 -13.486010 26.896817 8.321714 0.000001 -0.000000 0.000000 0.000001 -0.000000 0.000000 0.000001 -0.000000 0.000000 -37.561184 -4.319135 -0.314518 -28.730467 0.063775 -66.483429 0.000032 -57.890149 0.000026 -126.008999 -3.245221 19.912653 4.709219 9.560358 3.111993 19.473192 -1.474911 7.636933 -0.000000 0.000002 -0.000001 -0.212817 3.933727 -36.747128 2.942145 5.078899 -60.144597 0.000001 0.000002 -0.000003 0.405912 5.507055 -52.453165 3.387146 5.308617 -65.057470 -0.000000 -0.000001 -0.000002 -0.074377 5.736795 -61.061420 4.055032 5.569513 -72.094907 0.000001 0.000000 0.000001 -6.565562 4.545148 -72.425202 3.299632 5.267213 -64.107841 0.000001 0.000001 0.000002 -0.000002 0.000001 0.000001 -42.716696 -8.815644 -15.872140 -50.026047 59.302865 106.861684 0.000533 87.219364 -0.000634 -49.462266 -25.106083 -13.195162 8.377128 -4.904133 11.022011 21.620223 -18.183900 -18.379230 -0.000002 0.000003 -0.000001 -0.920039 1.683590 12.434973 0.748118 -2.533496 32.898296 0.000001 -0.000000 0.000005 3.413056 -7.186267 51.650256 6.296825 -4.359587 110.634680 0.000001 -0.000001 0.000001 -3.349046 -2.600447 57.010571 5.440870 -4.590879 99.698133 0.000000 -0.000001 0.000002 -3.996450 -3.303945 64.593871 4.058859 -4.618664 82.610523 -0.000001 -0.000003 -0.000002 -0.000001 -0.000001 -0.000000 -0.000002 0.000000 0.000001 -0.000002 0.000000 0.000001 -0.000002 0.000000 0.000001 -0.000002 0.000000 0.000001 -0.000002 0.000000 0.000001 -0.000003 0.000001 -0.000002 -0.000002 0.000000 0.000001 -0.000002 0.000000 0.000001 -0.000003 0.000001 -0.000002 0.000002 -0.000000 0.000001 0.000002 -0.000000 0.000001 0.000001 -0.000001 -0.000001 
-9.516919 78.202278 -11.472243 -27.168689 -44.197512 -11.674098 -0.000000 0.000004 0.000001 -26.680541 36.813746 33.967381 47.689924 7.874622 -1.828486 -15.321404 6.655423 11.900133 -0.000000 0.000000 0.000000 -0.000000 0.000000 0.000001 0.000000 -0.000001 -0.000000 -4.706067 5.106402 1.700783 50.589487 -5.103817 2.205953 -15.674073 -20.506542 -2.542583 -0.000000 -0.000001 -0.000000 -0.000000 -0.000001 -0.000000 -0.000000 0.000000 -0.000000 11.972910 -1.613564 0.153864 20.473021 -1.409585 -0.962538 20.464961 -1.303342 -0.973685 0.414011 7.860107 1.104219 -12.401588 26.165446 8.628389 0.000001 0.000000 0.000001 0.000001 0.000000 0.000001 0.000001 0.000000 0.000001 -37.553698 -3.933474 -0.341952 -29.299381 -0.954372 -66.646418 -0.000012 -54.382878 -0.000015 -126.362598 -1.856312 18.221693 4.709218 9.560354 3.111993 19.473189 -1.474915 7.636929 0.000002 -0.000004 0.000001 -0.212818 3.933732 -36.747135 2.942142 5.078906 -60.144597 -0.000001 0.000001 -0.000003 0.405911 5.507057 -52.453165 3.387144 5.308617 -65.057463 0.000002 -0.000001 0.000002 -0.074379 5.736788 -61.061420 4.055030 5.569513 -72.094907 -0.000002 -0.000000 -0.000000 -6.565564 4.545148 -72.425202 3.299624 5.267215 -64.107841 -0.000001 -0.000001 0.000001 -0.000003 0.000000 0.000001 -42.692678 -8.516083 -15.829392 -50.728184 59.477690 108.225536 0.000434 85.386654 -0.000469 -48.970800 -24.198990 -12.867673 8.377128 -4.904133 11.022013 21.620223 -18.183902 -18.379230 -0.000003 0.000000 -0.000001 -0.920040 1.683591 12.434973 0.748118 -2.533495 32.898296 0.000000 0.000000 0.000004 3.413057 -7.186266 51.650259 6.296822 -4.359589 110.634687 0.000002 0.000001 -0.000005 -3.349043 -2.600446 57.010571 5.440869 -4.590878 99.698133 0.000002 0.000001 0.000000 -3.996449 -3.303946 64.593871 4.058860 -4.618665 82.610516 -0.000001 -0.000001 0.000000 -0.000001 -0.000000 0.000000 -0.000001 -0.000000 0.000001 -0.000001 -0.000000 0.000001 -0.000001 -0.000000 0.000001 -0.000001 -0.000000 0.000001 -0.000001 -0.000000 0.000003 -0.000001 -0.000001 -0.000000 -0.000001 -0.000000 0.000001 -0.000001 -0.000000 0.000003 -0.000001 -0.000001 -0.000000 -0.000001 -0.000002 -0.000000 -0.000001 -0.000002 -0.000000 -0.000000 0.000004 0.000001 
-8.785312 78.152885 -10.201670 -26.637637 -42.888554 -10.492748 -0.000001 -0.000003 -0.000002 -24.551818 37.801890 32.966082 41.666947 6.375173 -0.680723 -11.940516 1.757499 10.091632 0.000001 -0.000001 -0.000001 0.000001 -0.000001 -0.000001 -0.000000 0.000001 0.000001 -4.496788 5.231297 -0.271627 51.602253 -4.888713 2.372007 -16.028104 -20.856129 -0.906437 0.000000 0.000003 -0.000000 0.000000 0.000003 -0.000000 -0.000001 -0.000002 0.000002 11.239866 -1.447878 0.282406 19.525658 -1.360481 -0.641937 19.509696 -1.273849 -0.662839 0.470073 7.851955 0.669684 -11.604603 25.230604 8.858540 -0.000000 0.000001 0.000000 -0.000000 0.000001 0.000000 -0.000000 0.000001 0.000000 -37.546687 -3.622599 -0.373225 -29.717692 -2.183152 -67.329949 0.000011 -51.408221 0.000013 -126.776125 -0.683984 16.855710 4.709218 9.560358 3.111992 19.473190 -1.474911 7.636927 -0.000000 -0.000004 -0.000002 -0.212816 3.933733 -36.747131 2.942141 5.078909 -60.144590 -0.000001 0.000001 -0.000003 0.405910 5.507056 -52.453165 3.387148 5.308614 -65.057477 -0.000002 -0.000001 0.000002 -0.074380 5.736792 -61.061420 4.055033 5.569515 -72.094907 0.000001 0.000003 0.000002 -6.565563 4.545152 -72.425202 3.299629 5.267216 -64.107841 0.000000 -0.000000 -0.000000 -0.000001 0.000000 0.000000 -42.673560 -8.255059 -15.795632 -49.784788 59.816283 107.912419 0.000338 84.995058 -0.000264 -48.942349 -24.028185 -13.553757 8.377128 -4.904133 11.022010 21.620218 -18.183903 -18.379223 -0.000000 -0.000002 0.000001 -0.920038 1.683592 12.434978 0.748117 -2.533494 32.898296 -0.000000 0.000000 0.000000 3.413056 -7.186265 51.650256 6.296826 -4.359587 110.634680 -0.000001 0.000001 0.000002 -3.349045 -2.600444 57.010571 5.440870 -4.590879 99.698133 -0.000001 0.000000 0.000000 -3.996447 -3.303943 64.593871 4.058860 -4.618668 82.610530 0.000002 0.000001 0.000002 0.000003 0.000001 0.000000 0.000001 -0.000000 -0.000000 0.000001 -0.000000 -0.000000 0.000001 -0.000000 -0.000000 0.000001 -0.000000 -0.000000 0.000001 -0.000000 -0.000000 -0.000001 -0.000001 0.000001 0.000001 -0.000000 -0.000000 0.000001 -0.000000 -0.000000 -0.000001 -0.000001 0.000001 -0.000000 -0.000001 -0.000000 -0.000000 -0.000001 -0.000000 -0.000001 -0.000003 -0.000002 
-8.121798 77.714546 -8.524141 -25.651242 -41.672415 -8.814336 0.000001 0.000000 -0.000000 -21.683306 39.859037 31.574991 35.396216 3.571144 -0.387158 -5.956487 0.889824 4.772901 -0.000001 -0.000000 -0.000000 -0.000001 -0.000000 0.000000 0.000000 -0.000000 -0.000000 -4.782246 5.287666 -2.526124 53.816280 -4.394116 2.334432 -17.416605 -21.310434 0.916374 -0.000000 -0.000000 0.000000 -0.000000 -0.000000 0.000000 -0.000002 -0.000001 0.000003 10.350510 -1.197373 0.583718 18.587907 -1.184803 -0.353616 18.561988 -1.118479 -0.378939 0.458160 7.815239 0.196643 -11.103307 24.186506 8.911976 -0.000000 -0.000001 0.000002 -0.000000 -0.000001 0.000002 -0.000000 -0.000001 0.000002 -37.542978 -3.464736 -0.356763 -29.387439 -3.166070 -68.307417 0.000034 -50.472041 0.000039 -127.576172 -0.116245 16.427705 4.709219 9.560353 3.111993 19.473185 -1.474915 7.636929 0.000000 -0.000003 0.000002 -0.212817 3.933732 -36.747128 2.942143 5.078902 -60.144590 0.000001 -0.000001 -0.000002 0.405914 5.507058 -52.453165 3.387144 5.308614 -65.057470 -0.000000 -0.000000 0.000000 -0.074377 5.736788 -61.061420 4.055030 5.569515 -72.094907 -0.000000 -0.000001 -0.000001 -6.565561 4.545148 -72.425202 3.299624 5.267214 -64.107841 -0.000003 0.000000 0.000002 -0.000000 0.000000 0.000001 -42.643975 -8.046829 -15.709213 -47.201962 60.292976 105.845488 -0.001404 86.760662 0.001439 -49.418229 -25.252446 -15.730431 8.377127 -4.904134 11.022012 21.620221 -18.183902 -18.379226 0.000002 0.000001 0.000000 -0.920038 1.683591 12.434976 0.748117 -2.533496 32.898296 0.000001 -0.000000 0.000005 3.413056 -7.186264 51.650259 6.296824 -4.359589 110.634680 0.000000 0.000001 -0.000000 -3.349044 -2.600445 57.010575 5.440869 -4.590879 99.698133 0.000000 -0.000000 0.000002 -3.996450 -3.303943 64.593871 4.058863 -4.618667 82.610523 -0.000001 0.000000 0.000000 -0.000003 0.000002 -0.000001 0.000003 -0.000002 0.000001 0.000003 -0.000002 0.000001 0.000003 -0.000002 0.000001 0.000003 -0.000002 0.000001 0.000003 -0.000002 0.000001 0.000001 0.000002 -0.000000 0.000003 -0.000002 0.000001 0.000003 -0.000002 0.000001 0.000001 0.000002 -0.000000 0.000000 0.000001 -0.000001 0.000000 0.000001 -0.000001 0.000001 0.000000 -0.000000 
